<svg xmlns="http://www.w3.org/2000/svg" width="14" height="10" viewBox="0 0 14 10" fill="none">
  <path d="M6.61206 6.65C7.57856 6.65 8.36206 5.8665 8.36206 4.9C8.36206 3.9335 7.57856 3.15 6.61206 3.15C5.64556 3.15 4.86206 3.9335 4.86206 4.9C4.86206 5.8665 5.64556 6.65 6.61206 6.65Z" fill="currentColor"/>
  <path fill-rule="evenodd" clip-rule="evenodd" d="M0.0770389 5.31326C-0.0257654 5.04611 -0.0256766 4.74994 0.0772875 4.48285C1.08821 1.86052 3.63237 0 6.61107 0C9.59125 0 12.1365 1.86235 13.1464 4.48674C13.2492 4.75389 13.2491 5.05006 13.1461 5.31715C12.1352 7.93948 9.59103 9.8 6.61232 9.8C3.63214 9.8 1.08694 7.93765 0.0770389 5.31326ZM9.41232 4.9C9.41232 6.4464 8.15872 7.7 6.61232 7.7C5.06592 7.7 3.81232 6.4464 3.81232 4.9C3.81232 3.3536 5.06592 2.1 6.61232 2.1C8.15872 2.1 9.41232 3.3536 9.41232 4.9Z" fill="currentColor"/>
</svg>
