<?xml version="1.0" encoding="UTF-8"?><svg xmlns="http://www.w3.org/2000/svg" viewBox="0 0 1080 339.54"><defs><style>.cls-1{fill:#0b0907;}</style></defs><g id="Layer_1"><path d="M105.22,272.17c-2.06-3.1-4.39-4.9-6.45-1.03-6.19,9.8-14.96,16.51-26.83,16.51-11.09,0-17.54-7.22-18.57-18.83,0-3.61,0-7.74.52-12.12,2.84-20.9,16.25-51.85,31.73-81.78,1.29-2.32,1.29-3.87-3.1-2.06-2.06.26-4.13.52-6.19.52-22.19,0-26.57-24.25-17.8-50.56,11.87-35.08,47.98-74.3,102.68-74.3,48.5,0,68.11,28.89,65.27,64.75-1.81,24.51-16.25,44.89-39.73,53.4-3.35,1.03-5.68,2.58-1.81,4.9,18.32,12.9,23.48,31.73,17.8,58.82-7.74,37.15-32.5,57.53-62.17,57.53-17.28,0-28.38-6.71-35.34-15.74ZM103.68,143.18c13.67-22.7,27.09-41.79,36.12-50.82,19.86-19.86,39.21-9.29,28.12,9.8-6.19,10.58-11.61,20.38-17.03,30.18-1.55,3.1-2.06,6.19,2.06,7.48h1.55c15.22,0,25.8-14.19,29.41-28.38,4.9-18.32-1.55-37.41-24.51-37.41s-45.15,17.28-54.95,45.66c-2.58,7.74-3.87,15.48-4.13,21.41.26,3.61,1.03,5.93,3.35,2.06ZM116.83,228.32c2.84,4.13,6.97,6.45,12.12,6.45,11.61,0,18.32-8.51,21.41-25.02,2.84-14.7-2.32-28.12-12.38-34.57-3.35-1.55-6.45-1.81-8.25,2.32-4.39,11.61-9.03,24.25-13.42,39.47-1.29,3.35-1.55,7.48.52,11.35Z"/><path d="M308.13,214.12c-.17,0-.35,0-.52,0-.05,0-.1,0-.15,0h1.04c-.13,0-.25,0-.37,0Z"/><path d="M781.37,164.34c0,18.54-14.69,22.63-29.07,22.94-2.08-1.32-1.82-3.8-.6-6.43,4.64-12.64,7.74-25.54,7.74-37.15,0-13.67-4.9-22.96-17.54-22.96-19.09,0-25.03,44.63-20.38,73.01-2.33,9.28-9.29,17.02-15.23,17.02s-10.31-3.09-10.31-14.7c0-21.67,20.89-39.21,20.89-57.53,0-12.38-7.48-16.77-16.77-16.77-4.12,0-13.41,1.81-20.89,13.41-10.32,16-18.32,40.77-21.93,62.18-2.84,8.77-6.71,13.41-10.06,13.41-3.87,0-8-3.09-8-14.7,0-21.67,21.93-39.21,21.93-57.53,0-12.38-7.48-16.77-16.77-16.77-4.13,0-12.9,2.32-20.38,13.93-7.21,11.3-13.86,26.84-18.52,42.49-2.72,6.58-5.7,9.11-10.63,9.11h-.52c1.29-8.26,2.07-16.51,2.07-24.25,0-26.06-10.84-42.05-34.05-42.05-25.65,0-46.43,23.5-56.17,52.08-.34.56-.63,1.17-.85,1.83-11.35,33.03-16.25,40.51-23.21,40.51-1.81,0-4.65-1.55-4.9-5.68-1.04-13.41,13.93-37.41,21.67-51.34,4.9-9.54,7.73-31.21-12.9-35.08-11.35-2.07-32.51-3.87-46.96-3.87-18.57,0-16.76,31.47-26.31,59.08-.15.47-.31.96-.47,1.46-10.12,28.73-14.86,35.43-21.46,35.43-1.8,0-4.64-1.55-4.9-5.68-1.03-13.41,13.93-37.41,21.67-51.34,4.9-9.54,7.74-31.21-12.9-35.08-11.35-2.07-32.5-3.87-46.95-3.87-18.28,0-16.82,30.49-25.87,57.78-.01.04-.03.08-.04.12-2.82,7.2-5.84,9.95-10.98,9.95h-.51c1.29-8.26,2.06-16.51,2.06-24.25,0-26.06-10.83-42.05-34.05-42.05-35.86,0-62.17,45.92-62.17,87.45,0,37.92,21.92,45.92,41.27,45.92s34.31-14.7,43.08-34.31c1.18-3.08,3.24-5.72,6.96-5.93.05,0,.1,0,.15,0,.17-.01.34-.01.52,0,11.6-.25,21.63-5.36,28.19-19.66.01-.03.03-.06.04-.09,1.27-2.78,2.41-5.91,3.41-9.42,3.67-10.51,6.06-18.54,9.75-31.45,1.55-5.42,5.16-6.19,8.77-5.42,1.03.26,1.81.26,2.58.52,5.67.52,5.67,3.87,3.87,7.22-10.32,21.42-22.19,46.96-20.9,68.37,1.29,20.89,17.54,30.18,34.57,30.18,21.09,0,37.85-19.58,50.5-61.75,4.65-12.4,8.52-24.32,12.7-38.86,1.81-5.42,5.42-6.19,9.03-5.42.52.26,1.04.26,1.55.26,5.68.52,5.68,3.87,3.87,7.22-10.32,21.42-22.19,46.96-20.9,68.37,1.29,20.89,17.55,30.18,34.57,30.18,12.99,0,24.33-7.42,34.09-22.97,7.02,18.43,23.06,22.97,37.63,22.97,20.12,0,34.31-14.7,43.08-34.31,1.18-3.08,3.23-5.72,6.96-5.93.04,0,.09,0,.14,0,.17-.01.35-.01.53,0,2.29-.05,4.52-.29,6.67-.75-.07,1.41-.11,2.78-.11,4.11,0,20.12,8.25,36.89,23.73,36.89,13.16,0,23.48-4.38,32.76-15.74,2.58-3.61,4.39-1.54,5.94,1.81,4.9,8.51,12.64,13.93,21.41,13.93,14.96,0,34.57-16.25,50.31-38.7,2.58-3.61,6.19-3.61,9.8-2.83,4.39.77,9.29,1.29,13.93,1.29,20.9,0,44.89-6.45,53.92-30.96,8.77-23.99-29.15-33.8-29.15-18.83ZM285.54,164.34c-6.71,0-11.35,8.51-11.35,18.83,0,5.67,1.29,10.83,3.87,15.22,2.58,3.61,1.55,6.97-.52,10.06-2.32,2.84-4.9,4.39-7.99,4.39-7.48,0-11.87-5.68-11.87-18.58,0-23.99,10.06-41.02,21.15-41.02,4.91,0,9.03,3.1,9.55,11.87-1.03-.52-1.81-.77-2.84-.77ZM569.57,164.34c-6.71,0-11.35,8.51-11.35,18.83,0,5.67,1.29,10.83,3.87,15.22,2.58,3.61,1.54,6.97-.52,10.06-2.32,2.84-4.9,4.39-8,4.39-7.48,0-11.86-5.68-11.86-18.58,0-23.99,10.06-41.02,21.15-41.02,4.9,0,9.03,3.1,9.55,11.87-1.04-.52-1.81-.77-2.84-.77Z"/><path d="M592.16,214.12c-.18,0-.35,0-.53,0-.05,0-.1,0-.14,0h1.04c-.13,0-.25,0-.37,0Z"/><path d="M859.54,208.45c0-38.18,24.51-87.71,66.04-87.71,6.19,0,12.64,3.35,18.06,14.7,10.06-24.77,38.44-89.52,61.14-89.52,17.29,0,18.58,12.38,13.42,27.35-4.9,14.96-59.59,110.93-59.59,136.21,0,3.87,1.55,5.93,4.39,5.93,10.06,0,28.38-9.55,28.38-39.47,0-18.83,42.83-8.51,30.44,27.35-11.35,33.02-46.69,51.08-73.01,51.08-7.48,0-13.42-2.32-18.06-6.19-2.58-2.58-5.42-4.13-8.51-1.29-5.93,4.64-12.9,7.48-21.41,7.48-19.61,0-41.28-7.22-41.28-45.92ZM910.87,213.36c5.42,0,7.48-4.9,10.83-18.83,2.32-8.51,5.16-17.03,8.26-25.02,1.03-12.13-2.84-16.25-7.74-16.25-10.58,0-21.15,17.28-21.15,41.02,0,13.42,3.1,19.09,9.8,19.09Z"/></g><g id="Layer_2"><path class="cls-1" d="M824.29,55.34c.46-2.16,1.85-4.05,3.9-5.34,1.6-1,3.43-1.54,5.16-1.54.63,0,1.25.08,1.84.22,4.28,1.03,7.18,4.27,8.64,9.6.67,2.43.96,5.17.96,8.02,1.33-.86,2.56-1.64,3.67-2.32-.13-2.35-.46-4.61-1.03-6.68-1.82-6.65-5.75-10.88-11.36-12.24-3.16-.77-6.85-.11-9.86,1.78-2.91,1.83-4.89,4.57-5.57,7.71-.3,1.37-.4,3.47-.38,6.02,1.22.18,2.47.45,3.74.79-.05-2.58.02-4.76.29-6.02Z"/><path class="cls-1" d="M840.25,69.31c-1.04.69-2.1,1.41-3.17,2.15-3.87-2.71-8.41-5.03-12.95-6.37-1.26-.37-2.52-.67-3.77-.88-1.02-.17-2.04-.29-3.03-.33-4.72-.2-8.14,1.18-10.19,4.14l-.22.34c-1.04,1.64-1.35,3.96-.82,6.21.57,2.45,2.01,4.47,4.05,5.7,1.7,1.03,5.6,2.36,9.79,3.63-1.25.97-2.39,1.88-3.39,2.7-3.52-1.12-6.63-2.27-8.26-3.25-2.87-1.73-4.9-4.56-5.69-7.96-.64-2.71-.4-5.46.63-7.74l-.08-.09.73-1.14c2.73-4.28,7.44-6.4,13.61-6.13.9.04,1.83.14,2.77.28,1.22.18,2.47.45,3.74.79,5.57,1.48,11.4,4.38,16.25,7.95Z"/><path class="cls-1" d="M877.38,63.08c-6.38-5.38-16.35-5.83-25.4-1.13-.93.48-2.12,1.18-3.52,2.03-1.11.68-2.34,1.46-3.67,2.32-1.42.92-2.95,1.93-4.54,3.01-1.04.69-2.1,1.41-3.17,2.15-3.95,2.72-8.08,5.65-11.82,8.41-1.22.91-2.4,1.79-3.52,2.64-.62.47-1.22.93-1.8,1.39-1.25.97-2.39,1.88-3.39,2.7-1.41,1.17-2.54,2.18-3.27,2.93-3.8,3.72-5.3,9.13-4.12,14.84,1.28,6.14,5.37,11.67,10.44,14.3l-.02.04c4.05,1.86,8.36,2.78,12.81,2.78,4.95,0,10.07-1.14,15.23-3.41,17.27-7.62,31.05-25.95,34.36-36.26,2.34-7.32.62-14.32-4.6-18.74ZM876.35,80.01c-2.9,9.02-15.64,25.83-31.12,32.66-7.79,3.44-15.13,3.85-21.83,1.24h0s-.63-.27-.63-.27c-3.7-1.67-6.87-5.88-7.83-10.47-.45-2.18-.73-6.31,2.49-9.44l.07-.07c.92-.96,2.64-2.42,4.87-4.17.34-.27.69-.55,1.06-.83.76-.59,1.57-1.21,2.42-1.85.38-.29.77-.58,1.17-.88,4.53-3.38,9.92-7.21,14.86-10.58.75-.51,1.49-1.01,2.21-1.5.29-.19.57-.38.85-.57,1.15-.76,2.26-1.49,3.29-2.16,2.74-1.78,5.02-3.17,6.46-3.92,6.92-3.59,14.32-3.43,18.86.4,3.43,2.9,4.42,7.31,2.79,12.41Z"/><path class="cls-1" d="M871.36,47.47c-3.44,1.84-5.92,5.72-5.43,9.77.09,1.52.65,2.96,1.22,4.4-.5-.59-1.07-1.17-1.54-1.82-4-5.15-2.63-12.75,1.63-17.41,0,0,.98-1.02.98-1.02,1.39-1.44,3.68-1.48,5.12-.1,2.18,1.97.9,5.85-1.98,6.19h0Z"/><path class="cls-1" d="M882.23,54.69c-3.9.17-7.82,2.58-9.13,6.44-.58,1.41-.7,2.95-.81,4.49-.19-.75-.45-1.52-.59-2.31-1.48-6.9,3.89-13.49,10.36-15.46,1.87-.69,3.95.26,4.65,2.13,1.11,2.72-1.73,5.66-4.47,4.71h0Z"/><path class="cls-1" d="M846.78,69.21c-6.56-1.16-28.42,21.97-25.89,20.66,15.7-8.15,27.04,11.47,18.17,25.6-3.37,5.37,18.01-7.93,25.41-14.97,7.64-7.27,3.08-27.6-17.69-31.28Z"/></g></svg>
