<?xml version="1.0" encoding="UTF-8"?><svg id="Layer_2" xmlns="http://www.w3.org/2000/svg" viewBox="0 0 500 500"><defs><style>@media(prefers-color-scheme:dark){.cls-1{fill:#ffffff}}.cls-1{fill:#0b0907;}</style></defs><path class="cls-1" d="M153.59,128.75c2.19-10.25,8.78-19.22,18.51-25.35,7.6-4.75,16.28-7.31,24.49-7.31,2.99,0,5.93.38,8.73,1.04,20.32,4.89,34.08,20.27,41.01,45.57,3.16,11.53,4.58,24.55,4.56,38.07,6.3-4.08,12.15-7.78,17.41-11-.61-11.15-2.19-21.87-4.88-31.72-8.64-31.57-27.29-51.64-53.92-58.1-15-3.66-32.52-.52-46.8,8.45-13.81,8.69-23.21,21.69-26.44,36.6-1.41,6.51-1.91,16.45-1.8,28.58,5.8.87,11.73,2.13,17.74,3.73-.24-12.24.09-22.62,1.39-28.56Z"/><path class="cls-1" d="M229.35,195.06c-4.94,3.28-9.97,6.69-15.05,10.21-18.37-12.86-39.92-23.88-61.47-30.24-5.98-1.76-11.96-3.18-17.9-4.18-4.84-.81-9.68-1.38-14.38-1.57-22.4-.95-38.64,5.6-48.37,19.65l-1.04,1.61c-4.94,7.78-6.41,18.8-3.89,29.48,2.71,11.63,9.54,21.22,19.23,27.06,8.07,4.89,26.58,11.2,46.47,17.23-5.93,4.6-11.34,8.92-16.09,12.82-16.71-5.32-31.47-10.78-39.21-15.43-13.62-8.21-23.26-21.64-27.01-37.78-3.04-12.86-1.9-25.92,2.99-36.74l-.38-.43,3.46-5.41c12.96-20.32,35.32-30.38,64.6-29.1,4.27.19,8.69.66,13.15,1.33,5.79.85,11.72,2.14,17.75,3.75,26.44,7.03,54.11,20.79,77.13,37.74Z"/><path class="cls-1" d="M405.6,165.48c-30.28-25.54-77.61-27.67-120.57-5.36-4.41,2.28-10.06,5.6-16.71,9.64-5.27,3.23-11.11,6.93-17.42,11.01-6.74,4.37-14,9.16-21.55,14.29-4.94,3.28-9.97,6.69-15.05,10.21-18.75,12.91-38.35,26.82-56.11,39.92-5.79,4.32-11.39,8.5-16.71,12.53-2.94,2.23-5.79,4.41-8.55,6.6-5.93,4.6-11.34,8.92-16.09,12.82-6.69,5.55-12.06,10.35-15.52,13.91-18.04,17.66-25.16,43.34-19.56,70.44,6.07,29.14,25.49,55.39,49.56,67.88l-.1.19c19.23,8.83,39.68,13.2,60.81,13.2,23.5,0,47.8-5.41,72.29-16.19,81.98-36.17,147.39-123.18,163.1-172.11,11.11-34.75,2.94-67.97-21.83-88.95ZM400.71,245.85c-13.76,42.82-74.24,122.61-147.72,155.03-36.98,16.33-71.82,18.27-103.62,5.89l.05-.05-2.99-1.23c-17.56-7.93-32.61-27.91-37.17-49.7-2.13-10.35-3.46-29.95,11.82-44.81l.33-.33c4.37-4.56,12.53-11.49,23.12-19.79,1.61-1.28,3.27-2.61,5.03-3.94,3.61-2.8,7.45-5.74,11.49-8.78,1.8-1.38,3.66-2.75,5.55-4.18,21.5-16.04,47.09-34.22,70.54-50.22,3.56-2.42,7.07-4.79,10.49-7.12,1.38-.9,2.71-1.8,4.04-2.71,5.46-3.61,10.73-7.07,15.62-10.25,13-8.45,23.83-15.05,30.66-18.61,32.85-17.04,67.97-16.28,89.52,1.9,16.28,13.77,20.98,34.7,13.24,58.91Z"/><path class="cls-1" d="M377.06,91.42c-16.34,8.75-28.12,27.16-25.78,46.36.44,7.21,3.08,14.07,5.8,20.86-2.37-2.82-5.07-5.55-7.31-8.66-19.01-24.46-12.5-60.54,7.74-82.62,0,0,4.66-4.84,4.66-4.84,6.58-6.83,17.45-7.04,24.28-.46,10.36,9.35,4.26,27.78-9.4,29.36h0Z"/><path class="cls-1" d="M428.65,125.69c-18.52.79-37.13,12.25-43.35,30.56-2.73,6.69-3.33,14.01-3.84,21.31-.91-3.57-2.15-7.2-2.82-10.97-7.02-32.77,18.46-64.02,49.16-73.4,8.89-3.3,18.77,1.24,22.07,10.13,5.27,12.92-8.23,26.87-21.22,22.36h0Z"/><path class="cls-1" d="M260.35,194.61c-31.14-5.51-134.89,104.28-122.88,98.05,74.53-38.67,128.33,54.45,86.24,121.49-15.99,25.47,85.49-37.65,120.59-71.07,36.25-34.51,14.61-131.02-83.95-148.47Z"/></svg>