<?xml version="1.0" encoding="UTF-8" standalone="no"?>
<svg
   id="Layer_2"
   viewBox="0 0 500 500"
   version="1.1"
   sodipodi:docname="icon-new.svg"
   inkscape:version="1.1.2 (0a00cf5339, 2022-02-04)"
   xmlns:inkscape="http://www.inkscape.org/namespaces/inkscape"
   xmlns:sodipodi="http://sodipodi.sourceforge.net/DTD/sodipodi-0.dtd"
   xmlns="http://www.w3.org/2000/svg"
   xmlns:svg="http://www.w3.org/2000/svg">
  <sodipodi:namedview
     id="namedview19"
     pagecolor="#ffffff"
     bordercolor="#666666"
     borderopacity="1.0"
     inkscape:pageshadow="2"
     inkscape:pageopacity="0.0"
     inkscape:pagecheckerboard="0"
     showgrid="false"
     inkscape:zoom="1.4226988"
     inkscape:cx="239.33386"
     inkscape:cy="223.87029"
     inkscape:window-width="1920"
     inkscape:window-height="1046"
     inkscape:window-x="1366"
     inkscape:window-y="0"
     inkscape:window-maximized="1"
     inkscape:current-layer="layer2" />
  <defs
     id="defs4">
    <style
       id="style2">@media(prefers-color-scheme:dark){.cls-1{fill:#ffffff}}.cls-1{fill:#0b0907;}</style>
  </defs>
  <g
     inkscape:groupmode="layer"
     id="layer2"
     inkscape:label="White"
     style="display:inline">
    <path
       style="fill:#ffffff;fill-opacity:1;stroke:#000000;stroke-width:1px;stroke-linecap:butt;stroke-linejoin:miter;stroke-opacity:1"
       d="m 142.82146,161.97709 c -61.003048,-36.95671 -156.663922,86.58515 -1.26285,114.17356 -81.720005,26.75593 -61.771301,141.25442 15.32695,153.73856 40.96998,9.76779 78.5056,0.81569 99.81849,-7.20831 21.31289,-8.024 89.66064,-65.71373 106.73573,-85.78335 C 500.02577,176.35784 353.96068,108.83726 263.85405,184.8103 266.48615,64.861902 131.65803,43.547755 142.82146,161.97709 Z"
       id="path175"
       sodipodi:nodetypes="cccsscc" />
  </g>
  <g
     inkscape:groupmode="layer"
     id="layer1"
     inkscape:label="Black Lines"
     style="display:inline">
    <path
       class="cls-1"
       d="m 153.59,128.75 c 2.19,-10.25 8.78,-19.22 18.51,-25.35 7.6,-4.75 16.28,-7.31 24.49,-7.31 2.99,0 5.93,0.38 8.73,1.04 20.32,4.89 34.08,20.27 41.01,45.57 3.16,11.53 4.58,24.55 4.56,38.07 6.3,-4.08 12.15,-7.78 17.41,-11 -0.61,-11.15 -2.19,-21.87 -4.88,-31.72 -8.64,-31.57 -27.29,-51.64 -53.92,-58.1 -15,-3.66 -32.52,-0.52 -46.8,8.45 -13.81,8.69 -23.21,21.69 -26.44,36.6 -1.41,6.51 -1.91,16.45 -1.8,28.58 5.8,0.87 11.73,2.13 17.74,3.73 -0.24,-12.24 0.09,-22.62 1.39,-28.56 z"
       id="path6" />
    <path
       class="cls-1"
       d="m 229.35,195.06 c -4.94,3.28 -9.97,6.69 -15.05,10.21 -18.37,-12.86 -39.92,-23.88 -61.47,-30.24 -5.98,-1.76 -11.96,-3.18 -17.9,-4.18 -4.84,-0.81 -9.68,-1.38 -14.38,-1.57 -22.4,-0.95 -38.64,5.6 -48.37,19.65 l -1.04,1.61 c -4.94,7.78 -6.41,18.8 -3.89,29.48 2.71,11.63 9.54,21.22 19.23,27.06 8.07,4.89 26.58,11.2 46.47,17.23 -5.93,4.6 -11.34,8.92 -16.09,12.82 C 100.15,271.81 85.39,266.35 77.65,261.7 64.03,253.49 54.39,240.06 50.64,223.92 47.6,211.06 48.74,198 53.63,187.18 l -0.38,-0.43 3.46,-5.41 c 12.96,-20.32 35.32,-30.38 64.6,-29.1 4.27,0.19 8.69,0.66 13.15,1.33 5.79,0.85 11.71,2.13 17.74,3.74 26.44,7.03 54.12,20.8 77.14,37.75 z"
       id="path8"
       sodipodi:nodetypes="ccccccccccccccccccccc" />
    <path
       class="cls-1"
       d="m 405.6,165.48 c -30.28,-25.54 -77.61,-27.67 -120.57,-5.36 -4.41,2.28 -10.06,5.6 -16.71,9.64 -5.27,3.23 -11.11,6.93 -17.42,11.01 -6.74,4.37 -14,9.16 -21.55,14.29 -4.94,3.28 -9.97,6.69 -15.05,10.21 -18.75,12.91 -38.35,26.82 -56.11,39.92 -5.79,4.32 -11.39,8.5 -16.71,12.53 -2.94,2.23 -5.79,4.41 -8.55,6.6 -5.93,4.6 -11.34,8.92 -16.09,12.82 -6.69,5.55 -12.06,10.35 -15.52,13.91 -18.04,17.66 -25.16,43.34 -19.56,70.44 6.07,29.14 25.49,55.39 49.56,67.88 l -0.1,0.19 c 19.23,8.83 39.68,13.2 60.81,13.2 23.5,0 47.8,-5.41 72.29,-16.19 81.98,-36.17 147.39,-123.18 163.1,-172.11 11.11,-34.75 2.94,-67.97 -21.83,-88.95 z m -4.89,80.37 c -13.76,42.82 -74.24,122.61 -147.72,155.03 -36.98,16.33 -71.82,18.27 -103.62,5.89 l 0.05,-0.05 -2.99,-1.23 c -17.56,-7.93 -32.61,-27.91 -37.17,-49.7 -2.13,-10.35 -3.46,-29.95 11.82,-44.81 l 0.33,-0.33 c 4.37,-4.56 12.53,-11.49 23.12,-19.79 1.61,-1.28 3.27,-2.61 5.03,-3.94 3.61,-2.8 7.45,-5.74 11.49,-8.78 1.8,-1.38 3.66,-2.75 5.55,-4.18 21.5,-16.04 47.09,-34.22 70.54,-50.22 3.56,-2.42 7.07,-4.79 10.49,-7.12 1.38,-0.9 2.71,-1.8 4.04,-2.71 5.46,-3.61 10.73,-7.07 15.62,-10.25 13,-8.45 23.83,-15.05 30.66,-18.61 32.85,-17.04 67.97,-16.28 89.52,1.9 16.28,13.77 20.98,34.7 13.24,58.91 z"
       id="path10" />
    <path
       class="cls-1"
       d="m 377.06,91.42 c -16.34,8.75 -28.12,27.16 -25.78,46.36 0.44,7.21 3.08,14.07 5.8,20.86 -2.37,-2.82 -5.07,-5.55 -7.31,-8.66 -19.01,-24.46 -12.5,-60.54 7.74,-82.62 0,0 4.66,-4.84 4.66,-4.84 6.58,-6.83 17.45,-7.04 24.28,-0.46 10.36,9.35 4.26,27.78 -9.4,29.36 v 0 z"
       id="path12" />
    <path
       class="cls-1"
       d="m 428.65,125.69 c -18.52,0.79 -37.13,12.25 -43.35,30.56 -2.73,6.69 -3.33,14.01 -3.84,21.31 -0.91,-3.57 -2.15,-7.2 -2.82,-10.97 -7.02,-32.77 18.46,-64.02 49.16,-73.4 8.89,-3.3 18.77,1.24 22.07,10.13 5.27,12.92 -8.23,26.87 -21.22,22.36 v 0 z"
       id="path14" />
    <path
       class="cls-1"
       d="M 260.35,194.61 C 229.21,189.1 125.46,298.89 137.47,292.66 212,253.99 265.8,347.11 223.71,414.15 207.72,439.62 309.2,376.5 344.3,343.08 380.55,308.57 358.91,212.06 260.35,194.61 Z"
       id="path16" />
  </g>
</svg>
